# xmcd
#
# Track frame offsets: 
#        150
#        14945
#        131183
#        170093
#
# Disc length: 3394 seconds
#
# Revision: 5
# Processed by: cddbd v1.5.2PL0 Copyright (c) Steve Scherf et al.
# Submitted via: ExactAudioCopy v0.95b2
#
DISCID=3b0d4004
DTITLE=Stevie Ray Vaughan and Buddy Guy - It's Still Called The Blues
DYEAR=1989
DGENRE=Blues
TTITLE0=It's Called The Blues
TTITLE1=Champagne And Reefer
TTITLE2=Mary Had A Little Lamb
TTITLE3=Leave My Girl Alone
EXTD=Recorded live at Buddy Guy's Legends Club,\nChicago, Illinois, Ju
EXTD=ly 30, 1989.\n
EXTT0=
EXTT1=
EXTT2=
EXTT3=
PLAYORDER=
